# xmcd CD database file
#
# Track frame offsets:
#	150
#	22527
#	42400
#	65885
#	77530
#	97502
#	118307
#	134712
#	154532
#	174497
#
# Disc length: 2544 seconds
#
# Revision: 2
# Processed by: cddbd v1.5.2PL0 Copyright (c) Steve Scherf et al.
# Submitted via: CDex 1.70beta2
#
DISCID=7709ee0a
DTITLE=吉田拓郎 - サマルカンド・ブルー
DYEAR=1986
DGENRE=Folk
TTITLE0=レノン症候群
TTITLE1=サマルカンド・ブルー
TTITLE2=パラレル
TTITLE3=ロンリー・ストリート・キャフェ
TTITLE4=七つの夜と七つの酒
TTITLE5=時は蠍のように
TTITLE6=風のダイアローグ
TTITLE7=君の瞳に入りたい
TTITLE8=初夏’７６
TTITLE9=人生キャラバン
EXTD=YEAR: 1986
EXTT0=
EXTT1=
EXTT2=
EXTT3=
EXTT4=
EXTT5=
EXTT6=
EXTT7=
EXTT8=
EXTT9=
PLAYORDER=
